<svg width="139" height="136" viewBox="0 0 139 136" fill="none" xmlns="http://www.w3.org/2000/svg">
<path fill-rule="evenodd" clip-rule="evenodd" d="M114.144 67.7812C114.05 62.4717 113.946 57.056 113.157 51.7982C112.385 46.6579 110.262 42.0116 106.615 38.2789C98.8668 30.3502 87.6359 28.4136 77.1819 26.6389L59.3084 23.6044C53.8556 22.6789 48.0382 21.1995 42.5289 22.5121C39.8142 23.1589 37.5088 24.6615 35.4018 26.4393C33.3708 28.1529 31.1872 29.993 29.811 32.2984C28.4324 34.6072 27.9582 37.306 27.51 39.9171C27.0045 42.861 26.6119 45.8279 26.3329 48.8019C25.7739 54.7604 25.6976 60.7636 26.103 66.7343C26.2995 69.6304 26.6121 72.5181 27.0112 75.393C27.2091 76.8186 27.4328 78.2407 27.6854 79.6578C27.7598 80.0756 27.8165 80.5383 27.8928 81.0057C27.329 82.6093 27.0086 84.27 27.0344 85.9236C27.1105 90.7946 31.2215 93.8613 35.366 95.5078C37.769 96.4625 40.2814 97.1112 42.6425 98.1777C45.1263 99.2995 46.817 101.118 48.5153 103.193C51.7542 107.149 55.4093 110.705 59.5829 113.672C68.4315 119.963 79.6392 122.938 90.3757 120.68C92.9518 120.138 95.5506 119.297 97.8662 118.029C100.311 116.69 102.149 114.751 103.693 112.458C106.559 108.201 108.615 103.407 110.17 98.5295C111.756 93.5537 112.882 88.5689 113.496 83.3805C114.108 78.2089 114.237 72.9848 114.144 67.7812V67.7812Z" fill="#D08B5B"/>
<path fill-rule="evenodd" clip-rule="evenodd" d="M57.1086 5.10913C64.505 4.09164 74.7138 7.39864 78.3973 14.0667C95.9833 9.92043 118.164 9.78462 132.658 23.5874C147.783 39.9605 128.786 61.5486 116.189 66.4158C117.106 70.8732 115.676 99.4294 105.558 112.167C97.5277 122.96 78.8277 127.94 70.1745 115.05L70.107 114.943C69.18 113.454 69.9784 113.502 70.93 114.61C79.4033 122.062 90.924 122.189 99.8019 114.325C116.44 99.9499 114.725 64.7041 106.807 44.3139C84.2628 41.8376 60.1245 48.6713 44.5532 65.6434L45.6062 71.9829C45.7856 73.063 45.9894 74.1421 46.1448 75.2259C46.2444 75.9204 46.2555 76.611 45.7744 77.1732C44.1859 79.029 41.5086 76.2403 39.3058 75.1311C38.6555 75.0396 38.004 75.0043 37.3651 75.0494C26.7817 76.4126 28.867 96.9448 40.4988 93.3458C41.4762 92.7369 42.3158 92.9228 42.695 93.8063C45.4675 96.3461 47.2957 100.876 51.902 105.239C53.5273 106.875 55.0063 108.245 56.8344 109.557C57.9082 110.643 61.1483 111.751 60.1212 113.609C58.1789 117.838 46.725 104.555 44.6999 100.881C38.355 103.387 31.3236 102.536 24.7483 101.923C-9.93965 100.12 -5.3089 63.5513 23.124 40.4639C28.4762 36.5234 34.3812 33.3088 40.5194 30.8351C41.3574 30.4974 40.9913 29.1213 40.1414 29.4638C36.0799 31.1008 32.1206 33.0493 28.3463 35.3044L28.3406 33.9562C28.3351 31.6853 28.3707 29.3212 28.7651 27.2463C28.9622 25.8086 29.2938 24.273 29.8043 23.1179C30.4354 19.5762 40.3213 7.4195 57.1086 5.10913ZM36.9027 79.7632C37.4383 79.2543 38.4382 79.8611 38.915 79.8459C40.1343 80.0128 41.2927 80.5278 42.1961 81.1634C42.7926 81.4976 43.2106 81.8114 43.5599 82.1001L43.5694 82.0975C43.5668 82.0975 43.5635 82.1001 43.5607 82.1008L43.5935 82.123C44.1022 82.4845 45.9642 84.5202 44.7878 83.9727C44.7001 83.8587 44.6103 83.7492 44.5198 83.6419C44.51 83.6566 44.4965 83.671 44.4804 83.685L44.5465 83.7831C45.5463 85.2872 43.8201 83.7025 43.5545 83.2816C43.5419 83.2918 43.5277 83.2987 43.5137 83.306L43.8596 83.727C43.908 83.7868 43.946 83.8345 43.9775 83.8748L44.0505 83.9453C45.2065 85.0816 45.2426 86.1044 43.8996 84.4242C43.9524 84.5034 43.9948 84.5873 44.0007 84.6617L44.0803 84.7632C45.1349 86.1221 44.2771 85.6395 43.7531 85.0591L43.7093 85.0092L43.7182 85.0227C44.2057 85.7738 43.2385 85.2468 43.0676 84.8451L43.0604 84.8269C42.8741 84.6749 42.7595 84.5044 42.7202 84.4613L42.713 84.4541C41.8062 83.525 40.4919 82.7389 39.3754 82.3817C39.2136 82.3509 39.0498 82.3262 38.8844 82.3087C38.213 82.1589 37.5343 82.0563 36.8484 82.0008C36.7645 81.9908 36.6795 81.9292 36.6159 81.8496C35.5788 81.8146 35.899 81.3895 36.3293 81.3105L36.3368 81.3092L36.2514 81.302C35.5859 81.2371 35.1313 80.9983 35.8043 80.8517L35.8896 80.8347C35.8792 80.8184 35.8699 80.802 35.8609 80.7857C35.2845 80.7224 35.6606 80.1621 35.9806 80.2976C35.846 79.8575 36.4612 80.0772 36.538 80.0118C36.5965 79.9469 36.6693 79.8895 36.7112 79.8864C36.8965 79.7556 36.8067 79.7675 36.9027 79.7632ZM40.429 72.6372L40.2939 72.7162C40.1847 72.7799 40.0723 72.8224 39.9595 72.8472C40.1188 72.915 40.2761 72.9883 40.4318 73.0665C40.4293 72.9709 40.4275 72.8754 40.4275 72.7801L40.429 72.6372Z" fill="black"/>
<path fill-rule="evenodd" clip-rule="evenodd" d="M72.1158 103.333C74.0386 98.8375 78.2351 95.5336 83.0669 94.3257C86.615 93.441 90.3386 93.4692 93.9555 93.8204C95.8506 94.0031 97.8832 94.1528 99.6691 94.8551C101.194 95.4551 102.437 96.5892 103.371 97.9205C104.484 99.4981 105.24 101.304 105.772 103.154C105.847 103.417 105.918 103.682 105.984 103.949C105.753 105.345 105.263 106.534 103.967 107.412C102.702 108.269 101.193 108.619 99.689 108.744C99.5415 108.673 99.3989 108.601 99.2683 108.526C96.9243 107.187 95.2745 104.022 92.316 104.451C89.6757 104.833 87.9377 108.148 86.3676 110.093C81.3277 110.679 76.2915 109.167 72.1907 106.291C71.9825 105.307 71.9704 104.314 72.1158 103.333M109.409 99.9228C109.006 98.7936 108.498 97.7001 107.896 96.6699C105.907 93.263 102.852 90.5485 99.2254 88.9968C90.6468 85.331 79.547 87.9151 72.6191 93.9271C70.2526 95.9823 67.8598 99.0024 67.1361 102.251C66.9201 102.294 66.7161 102.406 66.5482 102.564C61.5429 99.419 56.3884 96.3932 52.355 92.0337C49.4259 88.8663 47.3885 85.1178 46.141 80.9986C46.039 80.6596 45.4911 80.7092 45.5077 81.0843C45.5125 81.1721 45.5172 81.2596 45.522 81.3474C45.4698 81.1861 45.2231 81.2691 45.2042 81.4257C44.533 86.4296 43.6934 91.7348 44.4665 96.7648C44.929 99.7662 46.2952 101.963 48.1214 104.336C50.0781 106.879 52.2933 109.245 54.5583 111.513C55.9956 112.953 57.4969 114.614 59.2567 115.67C61.3036 116.897 63.6255 117.829 65.8099 118.776C68.0322 119.741 70.2877 120.633 72.5859 121.407C77.18 122.959 81.9282 124.031 86.7595 124.501C90.6278 124.876 95.0487 125.284 98.7558 123.832C101.597 122.719 103.891 120.707 105.71 118.287C107.69 115.651 109.256 112.648 110.121 109.482C111.021 106.193 109.599 100.453 109.409 99.9228" fill="black"/>
<path fill-rule="evenodd" clip-rule="evenodd" d="M93.3267 101.666C91.5772 102.171 89.6993 102.217 87.916 101.694C86.2985 101.221 84.6377 100.178 83.4473 98.7986C82.3897 97.5731 81.7048 96.0839 81.7318 94.4942C81.7348 94.3127 81.7999 94.1611 81.8999 94.0435C82.0076 93.9169 82.1581 93.8299 82.3193 93.7922C82.485 93.7534 82.6603 93.7671 82.8095 93.8348C82.9446 93.896 83.0603 94 83.1327 94.152C83.3156 94.3919 83.4979 94.6282 83.6808 94.8579C85.1518 96.6706 86.5764 98.0253 88.7883 98.5112C89.9885 98.7749 91.1871 98.658 92.2869 98.2557C93.4641 97.825 94.5284 97.0678 95.3623 96.0989C95.7392 95.661 96.1841 95.4823 96.6192 95.4793C97.1122 95.4759 97.5996 95.7045 97.9667 96.0699C98.3276 96.4291 98.5692 96.9173 98.5911 97.4279C98.6103 97.876 98.4638 98.3441 98.0741 98.7618C96.7904 100.138 95.1268 101.145 93.3267 101.666ZM93.2731 78.962C95.0665 80.0499 97.799 82.5867 95.8698 85.2837C93.5989 87.6617 90.3292 84.9351 88.718 83.702C87.2241 82.7463 85.5455 85.2043 86.9316 86.3202C98.5742 94.9225 103.299 79.2465 94.1802 77.6829C93.1762 77.5107 92.8033 78.6255 93.2731 78.962ZM76.4971 74.1751C75.9207 73.8072 75.2427 73.681 74.4912 74.0222C73.904 74.2887 72.8741 75.1771 72.1573 76.345C71.6669 77.144 71.3192 78.0814 71.3916 79.0577C71.4084 79.2845 71.3244 79.4517 71.192 79.5753C71.0874 79.6729 70.9364 79.7447 70.7589 79.7671C70.6083 79.7861 70.4397 79.769 70.3025 79.7263C70.0417 79.645 69.9037 79.4762 69.8517 79.3383C69.3498 78.0082 69.566 76.5239 70.1285 75.1847C70.8876 73.3775 72.2661 71.8637 73.1692 71.3757C74.7147 70.5402 76.538 70.5017 78.0857 71.3529C79.4032 72.0773 80.227 73.2468 81.0463 74.439C81.2204 74.6924 81.3933 74.944 81.572 75.1911C81.93 75.6863 81.9657 76.1775 81.827 76.5987C81.6734 77.0652 81.2817 77.459 80.7919 77.6651C80.3393 77.8555 79.8139 77.8823 79.3489 77.6866C78.9562 77.5213 78.5958 77.1991 78.3677 76.6523C77.9836 75.7314 77.3436 74.7154 76.4971 74.1751V74.1751ZM105.771 76.224C105.376 76.4292 105.067 76.4911 104.629 76.3602C104.387 76.2876 104.148 76.1485 103.96 75.9615C103.775 75.7761 103.641 75.5457 103.589 75.29C103.461 74.659 103.115 74.0683 102.622 73.6833C102.2 73.3542 101.668 73.1797 101.079 73.2782C100.442 73.3842 99.8355 73.7917 99.4177 74.272C99.2781 74.4328 99.1687 74.6153 99.0587 74.7966C98.8529 75.1357 98.6528 75.4509 98.369 75.6999C98.2614 75.7947 98.0993 75.8603 97.9422 75.8603C97.8784 75.8603 97.8136 75.8499 97.7519 75.8307C97.1183 75.1961 96.9965 74.7147 97.0169 74.2371C97.0383 73.7364 97.2362 73.2294 97.5558 72.7563C98.3057 71.6466 99.7295 70.7368 100.69 70.5307C102.006 70.2485 103.313 70.5873 104.361 71.3207C105.439 72.0754 106.237 73.247 106.486 74.5674C106.546 74.8854 106.521 75.2287 106.4 75.5263C106.281 75.8171 106.074 76.0662 105.771 76.224ZM79.3988 62.3442C78.6091 63.112 77.6745 63.2309 76.729 63.3367C76.2037 63.396 75.7843 63.4438 75.3716 63.5368C74.2372 63.7923 73.116 64.1772 72.093 64.7314C71.0237 65.3109 69.8584 66.0097 69.02 66.9049C68.8207 67.1179 68.6327 67.3415 68.4445 67.5655C68.2729 67.7697 68.1076 67.9664 67.9334 68.156C67.7334 68.3738 67.5434 68.6021 67.3544 68.8298C67.2375 69.0219 67.2144 69.0691 67.1909 69.1183C67.1555 69.1922 67.1143 69.2749 67.0673 69.3637C67.0028 69.4852 66.9274 69.6182 66.8483 69.7388C66.7168 69.9593 66.6462 70.02 66.5853 70.0472C66.4841 70.0922 66.3881 70.1143 66.295 70.1023C66.2078 70.0911 66.1255 70.0492 66.0443 69.9807C65.6389 69.6389 65.5193 69.0779 65.5316 68.4824C65.5502 67.5787 65.8842 66.5782 66.1921 65.9632C66.9079 64.5341 67.9008 63.0484 69.0946 61.9818C70.4568 60.7643 71.9472 59.8426 73.659 59.2075C74.7228 58.8126 75.9545 58.4502 77.1134 58.496C77.9477 58.529 78.744 58.7764 79.4017 59.3944C79.8056 59.7738 79.9994 60.3135 79.9994 60.8527C79.9994 61.4027 79.7981 61.956 79.3988 62.3442ZM107.377 69.3751C107.327 69.4572 107.257 69.5138 107.18 69.5478C107.099 69.5835 107.008 69.5937 106.922 69.5791C106.835 69.5646 106.753 69.5255 106.688 69.4657C106.625 69.4084 106.578 69.3324 106.556 69.2393C106.032 66.9413 105.014 65.2316 102.841 64.1291C101.773 63.5868 100.543 63.2422 99.38 62.9674C99.0419 62.8876 98.6846 62.8358 98.3249 62.7834C97.1973 62.6191 96.0616 62.4309 95.3265 61.5213C94.8836 60.9734 94.6977 60.2727 94.8028 59.6319C94.9018 59.0285 95.2551 58.4753 95.8973 58.1437C97.4962 57.3187 99.4831 58.1283 101.098 58.8179C101.218 58.8691 101.335 58.9193 101.45 58.9677C103.029 59.6329 104.469 60.5109 105.653 61.7665C106.592 62.7626 107.463 64.2352 107.813 65.7501C108.105 67.0104 108.036 68.297 107.377 69.3751Z" fill="black"/>
</svg>
