<svg width="114" height="136" viewBox="0 0 114 136" fill="none" xmlns="http://www.w3.org/2000/svg">
<path fill-rule="evenodd" clip-rule="evenodd" d="M58.3061 18.499C71.7625 18.499 89.1322 26.9408 90.6134 35.5868C92.3589 45.7759 101.706 84.8725 99.5952 97.4101C97.4846 109.948 86.1106 118.973 67.9102 118.973C49.7099 118.973 36.1253 109.047 33.0062 105.639C29.8871 102.231 24.1067 90.0622 24.1067 90.0622C24.1067 90.0622 14.3618 88.7661 14.3156 80.8218C14.2694 72.8775 20.6513 69.9872 20.6513 69.9872C20.6513 69.9872 18.3759 38.6357 24.1067 30.4732C29.8375 22.3108 44.8498 18.499 58.3061 18.499Z" fill="#D08B5B"/>
<path fill-rule="evenodd" clip-rule="evenodd" d="M89.7899 34.1918C89.7802 34.0096 90.0456 33.9882 90.0954 34.1494C92.9985 43.7412 94.788 51.2162 96.6718 61.05L97.2281 63.9428C98.7149 71.6582 100.217 79.3849 101.485 87.1377L101.56 87.6006C102.195 91.6137 102.561 95.666 101.765 99.6874C101.021 103.446 98.9874 106.893 96.3474 109.637C91.245 114.942 84.1541 118.255 77.021 119.736C73.414 120.485 69.6933 120.774 66.0176 120.513C64.1854 120.385 62.3561 120.127 60.5621 119.746L60.3641 119.703C58.5557 119.313 56.9508 118.847 55.9904 117.145C55.7489 116.717 55.8461 115.982 56.3532 115.761C57.3106 115.349 58.0145 115.176 59.0594 115.295C60.0571 115.408 61.0314 115.709 62.0172 115.897C63.9013 116.254 65.8162 116.434 67.7334 116.477C71.4991 116.56 75.2744 116.088 78.8742 114.965C85.0594 113.033 91.3445 109.338 94.9586 103.811C99.2099 97.3095 97.5171 89.4185 96.3906 82.238L96.3566 82.0207C95.2161 74.6814 94.0885 67.342 92.9939 59.998L92.5269 56.8502C91.2995 48.5335 90.1406 42.5964 89.7899 34.1918ZM26.991 13.8351C30.0781 11.8002 33.9143 11.3002 37.5402 11.3283L37.9943 11.334C42.6372 11.4047 66.0082 11.961 73.833 12.1321L75.6945 12.1713C78.1583 12.2178 83.1273 12.2664 85.6875 12.3132L85.8352 12.3159C87.0913 12.3396 88.3473 12.3491 89.6034 12.3894L89.7875 12.396C90.7284 12.4362 91.5113 12.577 92.2482 13.2403C92.6229 13.5764 92.7691 14.0891 92.7347 14.5774L92.7292 14.641L94.5943 14.8045C95.8608 14.9165 96.5304 16.0524 96.0273 17.2019L96.002 17.2576C95.1086 19.1631 94.4261 24.7092 93.9474 26.7593C93.6962 27.8377 93.4945 28.9327 93.376 30.0348C93.2814 30.9025 93.2719 31.7721 92.7885 32.5352C91.7573 34.1635 88.8568 34.1493 88.8047 31.8432C88.8023 31.7697 88.8047 31.6986 88.8118 31.6299C81.5126 31.3099 71.5472 31.3407 64.2575 31.7768C57.4488 32.1845 50.6709 33.1088 43.9997 34.5238C42.31 34.8816 40.625 35.2727 38.9518 35.697C37.5797 36.043 35.8947 36.2492 34.6671 36.991C33.2925 37.8253 33.3186 39.3208 33.4679 40.7453C33.6282 42.255 33.8954 41.4772 34.2741 42.853L34.2974 42.94C34.6884 44.4332 35.1719 45.9097 35.8117 47.3128C36.1767 48.1139 36.7647 48.8842 36.5417 49.8062C36.4161 50.3252 36.0058 50.8798 35.6293 51.2425C33.9132 52.8897 31.0127 51.8397 29.8467 54.0961C28.6265 56.4554 28.5962 59.6515 28.4926 62.2622L28.4864 62.4151C28.4108 64.214 28.4319 66.0177 28.5504 67.8118C28.6571 69.447 29.0929 71.066 28.5338 72.6374C28.126 73.7797 26.7943 73.8864 26.0976 72.9573C26.0176 72.8507 25.9443 72.7413 25.8756 72.6314L25.8085 72.5212L25.804 72.5236C25.8701 72.6279 25.9317 72.7348 25.9909 72.8436C26.0549 72.9644 25.8961 73.0972 25.799 72.9929C24.159 71.2082 21.7631 71.5637 19.9074 72.8127C18.0281 74.0831 17.2864 76.4959 17.1892 78.66C17.0802 81.0605 17.2935 83.8742 18.2936 86.0924C18.7154 87.031 19.3171 87.8937 20.3151 88.2516C20.7679 88.4127 21.199 88.3914 21.6706 88.4293C22.161 88.467 22.7513 88.7138 23.2274 88.6806C23.8464 88.6365 24.4021 89.3432 24.2263 89.9353L24.2135 89.9746C24.2043 90.0031 24.1946 90.0315 24.1853 90.0576C24.2088 90.0789 24.2325 90.105 24.2491 90.1429C26.0502 93.8237 28.5196 97.0992 31.2497 100.138C32.6174 101.657 34.1339 103.053 35.7193 104.345C36.5014 104.982 37.3261 105.62 38.1958 106.134C38.485 106.302 38.7502 106.416 39.0753 106.509C39.2267 106.551 39.3997 106.572 39.5467 106.622L39.6993 106.674C39.7097 106.678 39.7197 106.681 39.7292 106.684C40.1652 106.734 40.5325 107.023 40.6771 107.475C41.0539 108.656 40.369 109.699 39.1983 110.023C37.9299 110.378 36.7346 109.755 35.7292 109.04L35.6624 108.992C33.6125 107.516 31.7237 105.859 30.0885 103.925C26.8536 100.107 24.8271 95.6866 23.8891 90.7971C23.6566 91.2972 23.3438 91.7333 22.8011 92.0366C21.9574 92.5107 20.9502 92.5107 20.0259 92.3519C18.1656 92.0366 16.5801 90.9014 15.5208 89.3655C14.4209 87.7728 14.0112 85.8388 13.7623 83.9546C13.5159 82.0678 13.395 80.1743 13.6415 78.2829C13.9948 75.5668 15.1345 72.8815 17.3503 71.3931C15.6914 67.7786 15.3999 63.7258 15.5184 59.7677C15.663 54.8948 16.5043 49.9673 17.1513 45.1394L18.9905 31.4142V31.4142L19.0658 30.8609C19.5096 27.632 20.05 24.386 21.2583 21.3436C22.4503 18.3454 24.2609 15.6341 26.991 13.8351ZM19.2514 78.7665C22.2896 77.2923 25.5719 78.6503 27.2071 81.511C28.6289 83.9982 24.4016 85.6422 23.6963 83.0784L23.676 82.9994C23.2115 81.0583 21.3201 79.3803 19.3462 79.1196C19.1827 79.0961 19.0616 78.8591 19.2514 78.7665Z" fill="black"/>
<path fill-rule="evenodd" clip-rule="evenodd" d="M83.9669 96.8457C83.1832 97.8683 81.7642 98.6515 80.175 99.0261C78.6607 99.383 76.987 99.3684 75.5426 98.8192L75.4187 98.7699C74.3388 98.3223 73.3022 97.4185 72.9085 96.4753C72.752 96.1003 72.6991 95.7192 72.8062 95.3635C72.9025 95.0436 73.1284 94.7491 73.5046 94.4961C73.6228 94.4167 73.7812 94.4109 73.9321 94.4375C74.1194 94.4705 74.304 94.5579 74.4154 94.676C75.0333 95.3318 75.9298 95.9711 76.991 95.9602C77.8097 95.9518 78.4783 95.6292 79.1267 95.2646L79.5823 95.0042C80.0219 94.7539 80.4677 94.5186 80.9721 94.4112C81.875 94.2188 82.9702 94.5703 83.6375 95.1504C83.9285 95.4034 84.1399 95.7007 84.1974 96.0209C84.2456 96.2899 84.1779 96.5705 83.9669 96.8457ZM79.2732 78.9621C81.0666 80.05 83.7991 82.5867 81.8699 85.2837C79.5989 87.6617 76.3293 84.9352 74.7181 83.702C73.2241 82.7464 71.5456 85.2043 72.9317 86.3202C84.5743 94.9225 89.2991 79.2465 80.1803 77.683C79.1762 77.5107 78.8033 78.6255 79.2732 78.9621ZM59.0408 62.242L59.556 62.101L60.0814 61.9595L60.4366 61.8657C62.8768 61.2283 65.5682 60.6674 67.988 60.9413C68.8705 61.0413 69.5868 61.5369 69.7117 62.4595C69.8169 63.2381 69.3127 64.2426 68.4547 64.381C65.6126 64.8398 62.7031 64.691 59.848 65.1641C58.4262 65.3994 57.0153 65.6916 55.5989 65.955C54.5219 66.1555 53.409 66.2259 52.3227 66.388L52.5723 66.4226C52.6597 66.4344 52.6379 66.5811 52.5516 66.5752C52.1936 66.5395 51.835 66.534 51.4759 66.5591L51.3219 66.5717C51.0875 66.6046 50.9493 66.3254 51.1583 66.1837C52.4818 65.2875 53.6049 64.3163 55.0868 63.6557C56.3686 63.0845 57.6878 62.6136 59.0408 62.242ZM81.255 60.8676C83.1311 58.9748 87.121 59.7022 89.3529 60.568C90.6268 61.0624 91.838 61.6874 92.8468 62.6224L92.9452 62.7144L93.0967 62.8598C93.7777 63.5251 94.5371 64.4407 94.429 65.3999C94.4126 65.5462 94.3328 65.7132 94.1673 65.7426C93.2734 65.9007 92.3954 65.43 91.5699 65.1468L91.0231 64.9596C90.2022 64.6805 89.3759 64.4138 88.5295 64.2213C87.477 63.9824 86.4033 63.8442 85.3227 63.8579C84.2305 63.8722 83.0573 64.1798 82.0168 63.747C80.8565 63.2647 80.2549 61.8768 81.255 60.8676ZM62.7202 76.1328C62.2415 76.6207 61.6093 76.8959 60.8002 76.7322C60.1679 76.6044 58.9641 75.9699 58.0024 74.9928C57.3445 74.3244 56.7944 73.4891 56.6449 72.5215C56.6102 72.2968 56.4907 72.1528 56.3338 72.0621C56.2099 71.9904 56.0465 71.9544 55.8686 71.9724C55.7175 71.9877 55.5571 72.0423 55.4331 72.1146C55.1973 72.2524 55.1008 72.4478 55.0812 72.5938C54.8921 74.0025 55.4373 75.4003 56.2872 76.5788C57.4342 78.1693 59.1186 79.3348 60.1086 79.6076C61.8028 80.0747 63.588 79.7029 64.9042 78.5261C65.9567 77.5852 66.4962 76.3594 66.9967 75.0988L67.0932 74.8545C67.2058 74.5684 67.3176 74.2845 67.4359 74.0036C67.6732 73.4407 67.5972 72.9541 67.3672 72.5749C67.1123 72.1547 66.6419 71.859 66.1183 71.7682C65.6342 71.6842 65.1163 71.776 64.7074 72.0711C64.362 72.3203 64.0834 72.7153 63.9844 73.2992C63.8235 74.2488 63.4501 75.3384 62.7918 76.0573L62.7202 76.1328ZM91.7709 70.6367C91.3761 70.4314 91.0673 70.3695 90.6294 70.5004C90.3872 70.573 90.1479 70.7122 89.9605 70.8992C89.7748 71.0845 89.6408 71.315 89.5888 71.5706C89.4607 72.2016 89.1147 72.7923 88.6218 73.1773C88.2004 73.5065 87.6685 73.6809 87.0786 73.5825C86.442 73.4764 85.8356 73.069 85.4178 72.5886C85.3015 72.4547 85.2061 72.3056 85.1139 72.1547L85.0588 72.064C84.853 71.7249 84.6529 71.4097 84.3691 71.1607C84.2615 71.066 84.0994 71.0003 83.9423 71.0003C83.8785 71.0003 83.8137 71.0107 83.752 71.0299C83.1184 71.6645 82.9966 72.146 83.017 72.6235C83.0384 73.1243 83.2362 73.6313 83.5559 74.1043C84.3058 75.214 85.7296 76.1238 86.6904 76.3299C88.0062 76.6121 89.313 76.2734 90.3607 75.5399C91.4387 74.7853 92.2375 73.6136 92.4866 72.2932C92.5465 71.9752 92.521 71.6319 92.3997 71.3343C92.2811 71.0435 92.0744 70.7944 91.7709 70.6367Z" fill="black"/>
<path fill-rule="evenodd" clip-rule="evenodd" d="M92.3339 61.3364C97.9083 61.3364 101.089 62.5328 102.255 62.626L102.29 62.6285C102.775 62.6594 103.21 62.6999 103.666 62.876C105.344 63.5209 105.618 65.2773 104.638 66.3841C104.57 68.6745 104.872 71.3507 104.354 73.6485C103.715 83.3353 99.15 84.97 96.5553 85.5667C95.2526 85.8663 93.7086 85.9855 92.3249 85.6692C89.9643 85.5814 87.6306 84.8439 85.6338 83.5597C82.853 81.7698 80.7876 79.0187 80.1174 75.7537C79.7997 74.1974 79.6513 72.5775 79.8241 70.9956L79.8498 70.7776C78.9459 70.3462 77.8985 70.2645 76.8187 70.2265C76.3029 70.2081 75.7945 70.1917 75.3007 70.2136C74.8179 70.2674 74.3409 70.339 73.8625 70.4366C73.3401 70.5939 72.8467 70.8536 72.391 71.2648L72.3597 71.865C72.2741 73.3643 72.0768 74.8682 71.7726 76.3392C71.3234 78.5096 70.6009 80.5825 69.0631 82.122C68.5426 82.8979 67.8985 83.5904 67.1165 84.1901C64.2761 86.3727 60.4169 87.174 56.8751 86.8723C49.6847 86.2599 45.5285 80.5634 44.5706 78.1286L44.5134 77.9811C43.8215 76.1709 43.2701 73.8223 41.0837 73.4333L40.6187 73.35C39.621 73.1631 38.7004 72.9029 38.1154 71.9314C37.8589 71.5073 37.727 71.033 37.6947 70.5494C37.3534 70.5756 37.0125 70.6006 36.6729 70.6248C33.9635 71.1967 17.7127 71.6815 16.4156 71.6815C16.4156 71.6815 13.9222 72.7289 12.8695 71.9174C12.1398 71.3531 11.8997 70.601 12.3014 69.7491C12.9075 68.4672 15.7036 67.6961 16.9451 67.4519C16.9451 67.4519 36.9809 67.618 38.4229 67.3451C39.3151 66.427 40.9111 66.5526 42.2447 66.4075C43.3487 65.6219 44.8932 65.0957 46.1131 64.7435C46.3618 64.6495 46.608 64.5585 46.8473 64.4729C49.0839 63.678 51.4086 63.257 53.7687 63.0309C56.2025 62.8 58.6434 62.9045 61.0629 63.2353C62.0826 63.3734 63.0927 63.5519 64.0957 63.7853C65.8916 64.0216 67.6771 64.4108 69.4737 64.8725L69.8332 64.9657C71.7251 65.4608 73.6692 65.8889 75.6277 65.5533C77.2221 65.2819 78.7554 64.6696 80.2255 64.0074L80.4169 63.9207C83.6492 62.4478 88.6972 61.3364 92.3339 61.3364ZM63.9012 66.7219C62.7085 66.4601 62.1992 68.2952 63.3956 68.5577C64.2429 68.7436 64.9609 69.17 65.4461 69.8924L65.4972 69.9709C66.1482 71.0047 67.7943 70.0504 67.1388 69.0099C66.4013 67.839 65.2552 67.0189 63.9012 66.7219ZM98.8328 65.584C98.4123 65.2884 97.7761 65.5078 97.532 65.9255C97.2633 66.3854 97.4394 66.8975 97.8332 67.1984L97.8733 67.2278C98.2345 67.4818 98.5862 67.9372 98.6304 68.4039L98.6343 68.4622C98.6816 69.6833 100.583 69.6895 100.536 68.4622C100.489 67.2616 99.7927 66.2585 98.8328 65.584Z" fill="black"/>
</svg>
