<svg width="137" height="159" viewBox="0 0 137 159" fill="none" xmlns="http://www.w3.org/2000/svg">
<path fill-rule="evenodd" clip-rule="evenodd" d="M118.149 81.4345C117.586 74.1479 118.459 66.5105 115.649 59.5846C110.751 48.0932 97.0164 44.2616 86.3682 39.8867C82.1024 38.6261 67.7484 38.4499 62.7536 36.7815C51.4492 33.0055 48.7483 28.5065 39.7659 35.6961C38.2496 36.9243 37.301 38.2591 36.609 40.0829L36.6374 40.0907C36.4398 40.8511 36.6516 41.6097 37.0969 42.1892C33.2023 46.1705 31.5725 52.1394 33.5708 57.4392C40.092 71.2305 39.7853 78.6876 37.6842 93.514C34.9403 107.355 41.2103 112.412 51.5942 119.943C51.1714 120.763 51.0837 121.852 51.635 122.575C63.6425 139.45 86.2827 147.507 105.681 138.942C113.555 135.437 117.07 127.051 119.076 119.484C121.413 111.011 122.131 102.083 120.229 93.4521C119.461 89.4604 118.462 85.4976 118.149 81.4345Z" fill="#D08B5B"/>
<path fill-rule="evenodd" clip-rule="evenodd" d="M32.1467 60.764L39.2864 65.5207L64.8431 38.5757L56.3384 31.8813C56.3384 31.8813 40.9088 43.2859 37.8751 46.2958C34.8413 49.3057 32.1467 60.764 32.1467 60.764Z" fill="#9FD8E5"/>
<path fill-rule="evenodd" clip-rule="evenodd" d="M48.8873 0.704109C50.3448 0.485228 51.4455 1.38959 51.9691 2.66428L51.9966 2.73291C52.1649 3.16664 52.3521 3.58852 52.5535 4.00329C56.2008 2.21386 61.405 2.67366 63.7133 6.29755C65.3604 8.8857 64.3555 11.9573 63.7346 14.7019L63.327 16.5103C64.1149 17.0118 64.7091 17.9098 64.6812 18.8396L64.6778 18.9112L64.512 21.433C65.0381 20.8997 65.5192 20.3191 65.9481 19.7005C66.2443 19.1577 66.5643 18.6244 66.9079 18.1078C68.9294 15.0669 73.4677 17.7096 71.7993 20.9661C71.4794 21.5942 71.1192 22.1891 70.7329 22.7626C70.2968 23.6088 69.939 24.4786 69.6641 25.3721C70.4533 25.7158 71.0599 26.4789 71.1239 27.6308C71.2732 30.3209 69.8608 32.5654 67.6141 33.9756C66.9529 34.3903 66.2704 34.4709 65.6519 34.3169C65.5429 34.4638 65.4338 34.6108 65.3296 34.7601C66.2254 35.4877 67.0335 36.3172 67.7279 37.2368C69.8181 36.924 71.9202 36.777 74.0223 36.7723C76.5913 35.5138 79.6674 35.5398 82.4283 36.0115C84.2057 36.3149 85.912 36.905 87.661 37.3293C89.5048 37.7748 91.377 37.7914 93.2421 38.0948C95.593 38.4764 97.6548 39.5619 98.9511 41.2944C100.375 41.3371 101.873 41.9202 103.115 42.7118C106.006 44.5557 108.881 46.4257 111.765 48.2815C112.872 48.994 113.286 50.1314 113.082 51.4L113.069 51.4811L112.971 52.0073L113.2 52.3312C114.082 53.5777 115.043 54.8834 115.614 56.2593C116.671 57.7832 117.626 59.3807 118.472 61.0279C119.612 63.2416 120.553 65.588 121.19 67.996C121.349 68.6051 121.508 69.219 121.612 69.8399C121.761 70.7169 121.531 71.3971 121.406 72.2385C121.249 73.305 121.192 74.3858 121.027 75.4547C120.915 76.1634 120.313 76.5118 119.683 76.5307C119.92 78.3344 120.09 80.1499 120.254 81.9511C120.484 84.5251 120.64 87.1061 120.775 89.6872C121.472 90.6992 122.896 91.5003 123.925 91.7776C125.349 92.1592 126.842 91.7444 128.188 91.2585C129.034 90.9528 129.729 92.017 129.316 92.728C128.02 94.9606 125.247 94.9512 123.148 93.9628C122.259 93.5457 121.479 92.9413 120.901 92.1544C120.937 92.9034 120.974 93.6523 121.012 94.4037L121.048 95.0842C121.475 103.032 122.396 111.252 120.903 119.121C118.318 132.752 107.039 143.13 93.261 143.936C86.031 144.359 80.0102 142.224 77.0162 141.032C74.0223 139.841 75.1859 137.412 77.2643 138.106C80.8448 139.302 87.4222 141.084 93.3084 140.315C107.182 138.501 118.946 131.566 117.737 101.699C117.566 97.4633 117.038 93.2257 116.924 88.9903C116.815 84.8498 116.856 80.7068 116.673 76.5686L116.612 75.1567C116.541 73.507 116.465 71.8495 116.341 70.1978C116.192 69.5579 116.069 68.9085 115.886 68.2804C115.391 66.5716 114.744 64.9101 113.941 63.3245C113.763 63.4596 113.564 63.5568 113.348 63.5947C111.711 63.8886 110.175 63.8057 108.642 63.1231C107.926 62.8078 107.295 62.3883 106.708 61.8693C106.428 61.6252 106.241 61.3882 106.094 61.1417C105.352 61.1535 104.61 60.9307 104.146 60.3975C103.616 59.7896 103.528 59.1618 103.736 58.5807L103.757 58.5227L103.705 58.5037C103.079 60.1225 101.833 61.547 100.465 62.5092C98.3041 64.0356 95.6001 64.4764 93.0074 64.5167C90.1446 64.5593 87.1254 64.1185 84.3005 63.6682C83.554 63.5497 82.8122 63.4146 82.0846 63.2321C82.0562 63.2605 82.0278 63.2937 81.997 63.3222C79.5726 65.6425 76.1623 66.2398 73.0862 64.9149C71.3088 64.1493 69.8181 62.9169 68.5005 61.5043C68.4815 62.2438 68.4436 62.9832 68.3796 63.7156L68.3531 64.0064C68.2219 65.3704 67.9695 66.8173 66.9387 67.8017C65.2727 69.3967 62.8554 68.7568 60.9334 67.7187C60.9358 67.7685 60.9358 67.8206 60.9358 67.8728C61.4548 69.6361 61.9762 71.4018 62.4976 73.1676L62.6099 73.5437C62.989 74.7975 63.4048 76.0528 63.519 77.365C63.737 79.8726 62.0686 82.3493 59.2816 81.5079C57.8197 81.0682 56.6486 79.8389 55.5249 78.8543L54.8168 78.2419C56.6487 84.2312 57.9189 90.4337 58.0374 96.6837C58.0445 97.0226 57.753 97.2786 57.4307 97.2904C56.6771 97.3212 55.8666 97.1719 55.1083 96.8709C55.0656 96.8686 55.0229 96.8662 54.9779 96.8591C53.684 96.6718 52.4824 96.2049 51.4231 95.5152C51.6672 96.2903 51.7762 97.1222 51.7122 97.992C51.6956 98.2029 51.3662 98.2764 51.3188 98.0441C50.7074 95.0365 47.1881 92.7635 44.1547 93.3395C40.8984 93.9581 38.5001 96.7595 37.9124 99.9473C37.282 103.372 38.4883 107.333 40.7231 109.975C41.7516 111.193 43.1048 112.21 44.7116 112.466C45.4462 112.582 46.2093 112.542 46.9227 112.333C47.226 112.243 47.5104 112.118 47.7995 111.999C48.2214 111.829 48.7143 111.803 49.1125 111.622C50.0154 111.217 50.923 112.049 50.4657 112.976C50.0675 113.784 49.7097 114.329 49.0485 114.746C49.5841 115.4 50.0699 116.31 50.25 116.555C51.1695 117.797 52.1032 118.97 53.1507 120.105C54.2172 121.257 55.3808 122.309 56.6108 123.283L57.1278 123.692C58.3125 124.632 59.3441 125.502 60.1798 126.85C60.8386 127.915 59.9855 129.358 58.7508 129.341C54.8879 129.287 52.0795 125.893 50.0794 122.928C49.795 122.504 49.5272 122.056 49.2783 121.596C49.1883 121.74 49.0888 121.875 48.9774 121.999L49.1978 122.591C49.8519 124.336 47.0341 125.476 46.2165 123.847C45.6216 122.667 44.932 121.544 44.1641 120.482C43.7115 120.418 43.2683 120.143 43.0218 119.787C42.3986 118.884 41.6995 117.972 41.1094 117.01C40.7823 116.699 40.4458 116.401 40.1022 116.109C40.0026 116.197 39.9007 116.284 39.8035 116.377C39.3722 117.36 38.839 118.259 38.1778 119.105L38.036 119.285C36.7694 120.882 35.1194 122.516 33.0778 122.906C32.4545 123.025 31.855 122.25 32.4071 121.755C33.8362 120.47 35.5259 119.595 36.8436 118.162C37.4927 117.455 38.0888 116.677 38.6014 115.862L38.7181 115.673C38.8035 115.533 38.8911 115.393 38.9812 115.251C38.3864 114.846 37.7915 114.438 37.1967 114.03C35.5592 115.43 33.4267 116.07 31.6155 117.229L31.4355 117.346C29.7979 118.441 28.0726 116.019 29.3855 114.689C30.8328 113.229 32.041 111.488 33.3231 109.865C32.7202 108.754 32.4349 107.441 32.328 106.114C32.2858 105.738 32.2529 105.362 32.2199 104.986C31.3004 105 30.3761 104.685 29.5941 104.142L29.2978 103.931C28.3475 104.235 27.3498 104.382 26.3947 104.356C24.1481 104.289 23.2286 101.723 24.6339 100.099C26.0677 98.4399 28.5774 98.0773 30.5657 98.8831C30.6297 98.85 30.6961 98.8144 30.7601 98.7789C30.6653 98.3428 30.6864 97.9472 30.7942 97.5997L30.7629 97.3878C30.3257 96.7169 30.0382 95.9509 29.9292 95.1415C29.8429 94.5004 29.8605 93.8649 30.0088 93.2319C30.0581 93.0212 30.1607 92.8029 30.2392 92.5832C30.0775 92.175 29.9825 91.7532 29.9531 91.3289C29.9079 91.2751 29.8628 91.2199 29.8202 91.1602C28.8336 89.7748 29.0329 88.1056 29.9718 86.9845C29.9761 86.9132 29.9827 86.8418 29.9925 86.771C29.9375 86.6473 29.887 86.5224 29.841 86.396C28.9236 85.4705 28.2501 84.3568 28.3757 82.9767C28.4494 82.1647 28.7831 81.4338 29.2881 80.8874C29.1986 80.6225 29.19 80.3155 29.2986 80.0593C28.4926 77.9153 28.5945 75.3331 29.1746 72.9353C29.0466 72.5703 28.9803 72.1745 28.9945 71.755C29.0609 69.975 30.6013 68.3397 32.4261 68.361C32.6458 68.3629 32.8515 68.3916 33.0491 68.4335L33.0517 68.3911C33.1217 67.8569 33.2686 67.3632 33.4831 66.9202C33.3776 66.8821 33.28 66.8273 33.1944 66.7545C32.0251 67.3784 30.7878 67.8552 29.4905 68.1802C28.5366 68.4191 27.5595 67.3347 28.1525 66.4393C28.4276 66.0238 28.7312 65.6508 29.0583 65.31C28.5933 65.3126 28.1212 65.3441 27.6437 65.4055C26.7858 65.5169 25.8283 64.9315 25.2714 64.1398C24.5794 64.813 23.885 65.4837 23.1907 66.1544C21.4322 67.8585 18.7756 66.6047 18.4983 64.3579C17.9745 64.2181 17.4863 63.981 17.0574 63.6421C14.2846 64.8461 11.3009 65.5074 8.25091 65.633C6.06113 65.7231 4.7814 63.1728 5.80519 61.3716C6.49245 60.1628 7.34561 59.0773 8.32911 58.134C6.80291 58.6009 5.22694 58.9375 3.61778 59.1532C2.74804 59.2693 1.51807 58.5488 1.16969 57.7501C-0.162181 54.6784 -0.0484262 51.4764 1.48489 48.4877C1.54414 48.3692 1.61049 48.2554 1.67448 48.1417C1.83326 47.7459 2.00626 47.3548 2.19348 46.9708C0.307056 45.0037 0.143534 42.079 1.16021 39.6306C0.752594 38.9694 0.596182 38.173 0.873459 37.4525C1.66263 35.3787 2.80017 33.4636 4.23632 31.8188C4.09887 31.5533 3.97801 31.2713 3.8761 30.9679C3.06797 28.5149 4.00408 25.5546 5.89287 23.8458C7.08019 22.7697 8.44524 22.1251 9.90272 21.7127C10.5165 20.6272 11.3057 19.6483 12.2252 18.8235C12.2608 18.7453 12.2963 18.6671 12.3366 18.5889C13.768 15.8917 16.3749 14.446 19.169 14.1118C19.278 13.0571 19.9889 12.0498 21.0222 11.7227C21.3066 10.8102 21.7308 9.93802 22.3138 9.14641C23.2309 7.89973 24.7548 7.31195 26.1909 8.12963C26.9777 8.57758 27.7314 9.09189 28.4376 9.66072C28.7548 9.51195 29.1144 9.41569 29.5201 9.38498L29.6225 9.37868L31.9592 9.26017C32.938 8.82644 33.9144 8.37138 34.8931 7.92817C35.4809 7.4423 36.1373 7.03702 36.853 6.73601C37.6635 6.39709 38.493 6.20511 39.3248 6.14112C40.0002 5.9207 40.6804 5.72635 41.3724 5.57467C42.9981 5.21915 44.6997 5.02006 46.3871 5.03665C46.4216 4.59988 46.4387 4.15788 46.4355 3.71065L46.4321 3.48661C46.3942 2.0527 47.5388 0.907937 48.8873 0.704109ZM47.2498 115.429C47.0175 115.479 46.7829 115.519 46.5483 115.547C46.6194 115.723 46.6905 115.898 46.7592 116.074C46.9488 116.18 47.1407 116.282 47.3327 116.377C47.2758 116.055 47.2426 115.73 47.2498 115.429ZM35.0741 111.81L34.9166 112.101C34.891 112.148 34.8659 112.195 34.8411 112.241C35.1753 112.215 35.5118 112.222 35.8436 112.26L35.8427 112.225C35.8 112.21 35.7573 112.197 35.7166 112.177C35.4877 112.067 35.2748 111.944 35.0741 111.81ZM41.6546 98.5727C43.7513 98.6948 45.5277 99.0163 47.4345 99.9336L47.5983 100.014C49.2833 100.85 52.0703 102.396 51.8356 104.612C51.7693 105.242 51.3119 105.906 50.5914 105.856C48.6173 105.721 47.4893 103.73 46.1527 102.488C44.8042 101.237 43.1476 99.9497 41.5148 99.0894C41.284 98.9682 41.3749 98.5849 41.6261 98.5725L41.6546 98.5727ZM32.1463 69.3755C31.6439 69.3921 31.8122 69.8803 32.0705 69.4727C32.0918 69.4395 32.1179 69.4063 32.1463 69.3755ZM59.2664 36.7814C54.5082 36.9065 49.7194 39.7163 46.1548 42.5564C43.0538 45.0272 40.3761 47.9661 38.005 51.1338C37.395 52.7113 36.8713 54.3218 36.4288 55.9441C36.1373 57.0154 35.9548 58.0985 35.7107 59.1793L35.6349 59.5107C35.4432 59.869 35.3008 60.2546 35.197 60.653C35.629 61.0863 36.1895 61.3965 36.8066 61.5437C37.0054 61.5911 37.1706 61.6938 37.3012 61.8298C37.7979 61.0007 38.2321 60.1257 38.4847 59.198L38.4939 59.1551C39.4488 57.5911 40.4858 56.0757 41.5975 54.6121C44.6642 50.5711 48.0413 46.888 52.1009 43.8234C55.1793 41.5007 58.6204 39.6805 62.2795 38.4978C61.3839 37.7752 60.3668 37.2035 59.2664 36.7814Z" fill="black"/>
<path fill-rule="evenodd" clip-rule="evenodd" d="M102.327 124.666C100.577 125.172 98.6996 125.217 96.9163 124.695C95.2988 124.221 93.638 123.178 92.4475 121.799C91.39 120.573 90.7051 119.084 90.732 117.494C90.7351 117.313 90.8001 117.161 90.9002 117.044C91.0079 116.917 91.1583 116.83 91.3195 116.792C91.4853 116.754 91.6605 116.767 91.8097 116.835C91.9448 116.896 92.0605 117 92.1329 117.152C92.3159 117.392 92.4981 117.628 92.6811 117.858C94.1521 119.671 95.5766 121.026 97.7886 121.511C98.9887 121.775 100.187 121.658 101.287 121.256C102.464 120.825 103.529 120.068 104.363 119.099C104.739 118.661 105.184 118.483 105.619 118.48C106.112 118.476 106.6 118.705 106.967 119.07C107.328 119.429 107.569 119.918 107.591 120.428C107.611 120.876 107.464 121.344 107.074 121.762C105.791 123.138 104.127 124.146 102.327 124.666ZM102.273 101.962C104.067 103.05 106.799 105.587 104.87 108.284C102.599 110.662 99.3295 107.935 97.7183 106.702C96.2243 105.747 94.5457 108.204 95.9318 109.32C107.574 117.923 112.299 102.247 103.18 100.683C102.176 100.511 101.804 101.626 102.273 101.962ZM85.4974 97.1754C84.921 96.8075 84.2429 96.6812 83.4915 97.0224C82.9042 97.2889 81.8743 98.1773 81.1575 99.3453C80.6672 100.144 80.3194 101.082 80.3918 102.058C80.4086 102.285 80.3247 102.452 80.1923 102.576C80.0877 102.673 79.9366 102.745 79.7592 102.767C79.6085 102.786 79.4399 102.769 79.3028 102.726C79.042 102.645 78.9039 102.476 78.8519 102.339C78.3501 101.008 78.5663 99.5241 79.1287 98.185C79.8878 96.3778 81.2663 94.864 82.1695 94.3759C83.715 93.5404 85.5382 93.502 87.0859 94.3531C88.4034 95.0775 89.2272 96.2471 90.0465 97.4392C90.2207 97.6927 90.3936 97.9442 90.5722 98.1914C90.9303 98.6866 90.9659 99.1777 90.8272 99.5989C90.6736 100.065 90.282 100.459 89.7922 100.665C89.3395 100.856 88.8141 100.883 88.3492 100.687C87.9564 100.522 87.596 100.199 87.3679 99.6525C86.9838 98.7316 86.3439 97.7156 85.4974 97.1754V97.1754ZM114.771 99.2242C114.376 99.4295 114.067 99.4914 113.63 99.3604C113.387 99.2878 113.148 99.1487 112.961 98.9617C112.775 98.7764 112.641 98.5459 112.589 98.2902C112.461 97.6592 112.115 97.0686 111.622 96.6835C111.201 96.3544 110.669 96.18 110.079 96.2784C109.442 96.3845 108.836 96.7919 108.418 97.2723C108.278 97.433 108.169 97.6155 108.059 97.7969C107.853 98.136 107.653 98.4511 107.369 98.7002C107.262 98.7949 107.1 98.8605 106.942 98.8605C106.879 98.8605 106.814 98.8502 106.752 98.831C106.119 98.1963 105.997 97.7149 106.017 97.2374C106.039 96.7366 106.236 96.2296 106.556 95.7565C107.306 94.6469 108.73 93.737 109.691 93.531C111.006 93.2488 112.313 93.5875 113.361 94.3209C114.439 95.0756 115.238 96.2473 115.487 97.5677C115.547 97.8857 115.521 98.2289 115.4 98.5266C115.281 98.8174 115.075 99.0665 114.771 99.2242ZM88.399 85.3444C87.6094 86.1122 86.6748 86.2311 85.7293 86.3369C85.2039 86.3963 84.7845 86.4441 84.3718 86.537C83.2375 86.7925 82.1162 87.1774 81.0933 87.7317C80.024 88.3111 78.8586 89.0099 78.0203 89.9051C77.8209 90.1182 77.633 90.3417 77.4448 90.5657C77.2732 90.77 77.1079 90.9666 76.9337 91.1563C76.7336 91.3741 76.5436 91.6023 76.3546 91.83C76.2378 92.0221 76.2147 92.0694 76.1912 92.1186C76.1557 92.1925 76.1146 92.2752 76.0675 92.3639C76.0031 92.4854 75.9276 92.6185 75.8486 92.7391C75.7171 92.9595 75.6465 93.0203 75.5855 93.0474C75.4843 93.0924 75.3884 93.1146 75.2953 93.1026C75.208 93.0913 75.1258 93.0495 75.0446 92.981C74.6392 92.6391 74.5196 92.0781 74.5318 91.4827C74.5504 90.579 74.8844 89.5785 75.1923 88.9634C75.9082 87.5343 76.901 86.0487 78.0948 84.9821C79.4571 83.7646 80.9474 82.8428 82.6592 82.2077C83.723 81.8129 84.9547 81.4505 86.1137 81.4962C86.9479 81.5292 87.7443 81.7767 88.402 82.3947C88.8058 82.7741 88.9997 83.3137 88.9997 83.853C88.9997 84.403 88.7983 84.9562 88.399 85.3444ZM116.377 92.3753C116.327 92.4575 116.258 92.5141 116.18 92.5481C116.099 92.5837 116.009 92.594 115.922 92.5794C115.835 92.5648 115.753 92.5257 115.688 92.4659C115.625 92.4086 115.578 92.3326 115.557 92.2395C115.032 89.9416 114.014 88.2319 111.842 87.1294C110.773 86.587 109.544 86.2424 108.38 85.9677C108.042 85.8878 107.685 85.8361 107.325 85.7836C106.198 85.6193 105.062 85.4312 104.327 84.5216C103.884 83.9737 103.698 83.273 103.803 82.6321C103.902 82.0288 104.255 81.4755 104.898 81.144C106.496 80.3189 108.483 81.1285 110.098 81.8181C110.218 81.8693 110.335 81.9195 110.45 81.968C112.029 82.6331 113.469 83.5111 114.653 84.7667C115.593 85.7629 116.463 87.2354 116.813 88.7503C117.105 90.0107 117.036 91.2973 116.377 92.3753Z" fill="black"/>
</svg>
