<svg width="114" height="136" viewBox="0 0 114 136" fill="none" xmlns="http://www.w3.org/2000/svg">
<path fill-rule="evenodd" clip-rule="evenodd" d="M17.0549 24.9318C18.2839 23.6128 19.8559 22.6302 21.5743 22.3162C20.0035 23.1009 18.4681 23.9188 17.0549 24.9318ZM14.6474 36.3044C14.4301 35.2993 14.2841 34.2844 14.2381 33.2698C14.5128 33.6874 14.9514 33.9663 15.4441 34.1104C15.1259 34.8231 14.8552 35.5574 14.6474 36.3044ZM96.8873 52.0641C95.4687 46.1585 88.8501 34.7993 87.2858 32.613C85.5871 27.1994 94.8518 22.858 89.8132 18.6247C87.5319 16.7147 84.517 16.0387 81.6888 15.3613C62.1064 10.6581 41.0671 13.0301 22.9052 21.6788C20.1426 21.0975 17.2644 22.2337 15.2555 24.2293C5.8174 33.7163 18.6797 50.8337 21.4923 61.529C26.3178 73.4546 16.3776 75.4607 17.4436 85.5509C18.2718 90.7637 23.5512 92.1415 28.0064 92.9293C28.7204 93.0964 29.675 93.1215 29.9054 93.8764C30.6272 98.2826 33.1019 102.482 36.4242 105.332C36.1337 106.192 36.3555 107.237 37.38 107.993C46.6623 114.892 58.3665 118.344 69.9439 117.724C83.7409 116.984 90.8759 109.076 92.5976 107.039C102.117 94.1821 100.98 77.2184 99.0378 61.8959C97.685 51.222 99.4004 62.5258 96.8873 52.0641Z" fill="#D08B5B"/>
<path fill-rule="evenodd" clip-rule="evenodd" d="M54.3444 2.92329C54.7781 1.5676 56.0057 0.752282 57.411 0.92056C58.6552 1.06751 59.9871 2.30233 59.8354 3.66514C59.807 3.92822 59.7691 4.17471 59.724 4.40698L59.73 4.40905V4.40905L59.7359 4.40935L59.7051 4.49941C59.6126 4.93314 59.4847 5.32184 59.2951 5.6892C59.0534 6.39312 58.8211 7.09941 58.5912 7.80807C58.923 7.79385 59.2619 7.81281 59.6055 7.8768C59.961 6.96669 60.3189 6.05894 60.6743 5.14645C61.0559 4.17234 61.3237 2.92092 62.0773 2.16723C63.0419 1.20497 64.715 1.00588 65.8905 1.69321C67.1323 2.41846 67.5755 3.7078 67.3053 5.08957C67.168 5.79438 66.6971 6.28489 66.1145 6.59307L66.0516 6.62539L65.6037 7.6872C65.7412 7.62794 65.8834 7.57343 66.0374 7.5284C66.2791 7.4573 66.5161 7.41226 66.7484 7.3933C67.3882 6.23432 68.0921 5.10853 68.8196 4.00406C69.6562 2.73369 71.2914 2.1933 72.6636 2.99677C73.8912 3.71491 74.55 5.60151 73.6708 6.84107C73.0025 7.782 72.3697 8.74189 71.7464 9.71126C71.8531 9.73022 71.9597 9.75392 72.0616 9.78474C72.109 9.72074 72.1588 9.65675 72.2109 9.59276C72.8911 8.749 73.6826 8.11618 74.4955 7.41463C75.2562 6.75575 75.607 5.72001 76.6071 5.21992C77.8655 4.59184 79.3822 4.89285 80.1311 6.14426C81.7379 8.82484 79.041 10.7825 77.3157 12.4061C78.8158 11.4699 80.3776 10.6143 81.9796 9.8748C82.8802 9.46003 83.7949 9.05948 84.7239 8.71345C86.1008 8.20151 87.2147 8.36528 88.3451 9.31783C88.8499 9.74444 89.1011 10.6761 88.8689 11.2969C88.4186 12.4866 87.7076 13.2095 86.4611 13.5532C85.5842 13.7949 84.686 13.9585 83.8092 14.2121C82.3398 14.634 80.9132 15.1483 79.5291 15.7906C79.6287 15.8522 79.7235 15.9186 79.8112 15.9944C80.8444 15.6602 81.8967 15.3711 82.9536 15.1246C84.7066 14.7135 86.4908 14.4358 88.2829 14.262L88.8782 14.2066C91.0266 14.0004 93.6101 13.6199 94.9287 15.6768C95.3623 16.3547 95.4097 17.4733 94.9287 18.1441C94.0091 19.4334 93.0944 19.6894 91.5729 19.7131C93.0707 19.8719 94.5661 20.0686 96.0544 20.2985C97.0802 20.4549 98.106 20.6322 99.1273 20.829L99.6376 20.9289C100.882 21.1778 102.271 21.3224 103.339 22.0429C105.671 23.6166 104.576 26.6812 101.993 27.0083C100.744 27.1647 99.358 26.6361 98.1327 26.3897C96.9431 26.1503 95.7486 25.9393 94.5495 25.7545C93.9286 25.6573 93.3077 25.572 92.6844 25.4938C93.9523 25.6763 95.2107 25.9346 96.4359 26.2996L96.7762 26.4023C99.1449 27.1243 102.342 28.2741 103.081 30.8052C103.529 32.3433 102.304 33.6848 100.82 33.7749C99.4409 33.8578 98.2915 33.0354 97.1208 32.4287C96.2676 31.9878 95.4003 31.6584 94.4807 31.3764C93.5304 31.0848 92.5611 30.8431 91.5847 30.6464C92.4099 31.101 93.2135 31.6007 93.9849 32.1596L94.3395 32.4216C96.3897 33.9494 99.5162 36.3148 98.7939 39.1787C98.5664 40.0817 97.5592 40.9444 96.5923 40.852C94.0755 40.6174 92.6867 37.9368 90.7885 36.5005C90.2932 36.126 89.7505 35.7563 89.1817 35.396C92.0587 38.8279 94.348 42.7955 96.0899 46.8934C99.9181 55.9087 101.092 64.2577 101.121 73.9512L101.121 74.2515C101.126 79.5984 101.005 85.0425 100.484 90.3658C100 95.2837 99.1139 100.138 96.8838 104.591C93.1465 112.059 85.8638 117.876 77.8323 120.089C68.8955 122.554 58.9064 120.627 51.5858 114.939C49.7184 113.488 52.1949 110.339 54.1027 111.678C61.7218 117.022 71.5758 118.715 80.3207 115.098C87.2573 112.23 92.8432 106.061 95.2107 98.9574C96.7176 94.4385 97.1563 89.6202 97.6939 84.9107L97.7299 84.597C98.2986 79.6719 98.628 74.7136 98.6233 69.7554C98.6162 60.5475 97.2938 52.968 93.2437 44.6157C91.3383 40.6814 88.8665 37.0435 85.9136 33.8507C85.0178 34.0332 84.0651 33.7773 83.1598 33.6801C82.6977 33.6303 82.2356 33.5829 81.7734 33.5402C82.2455 33.8455 82.7085 34.1629 83.1636 34.4877L83.7605 34.9182C85.6283 36.256 87.9981 37.7798 87.518 40.3661C87.3877 41.0653 86.6909 41.7076 86.0155 41.8664C83.5674 42.4495 81.8848 40.0699 80.2306 38.6573C78.7921 37.4296 77.2872 36.3299 75.7539 35.2278C75.4056 34.9789 75.0548 34.73 74.7017 34.4835C75.0335 34.8703 75.3562 35.2632 75.671 35.6597L76.1364 36.2497C77.5447 38.0119 79.5748 40.3025 78.3205 42.5869C77.965 43.2316 77.2067 43.6606 76.472 43.6464C73.9457 43.5942 72.9409 40.7264 71.7559 38.9156C70.7369 37.3632 69.6301 35.9009 68.4855 34.4385C68.1703 34.038 67.8527 33.6374 67.5304 33.2369C62.2243 33.5118 56.937 34.2134 51.7423 35.3344C48.1732 36.1047 44.6634 37.1027 41.1797 38.1951L40.8902 38.2872C39.0048 38.8943 37.0622 39.6713 35.7029 41.0037C35.5088 41.9217 35.6578 42.8898 35.8434 43.8066L35.9881 44.5083C36.5842 47.4427 36.9903 50.3227 36.6864 53.3353C36.3712 56.4425 35.4351 59.2369 34.2928 62.1237C33.7525 63.4841 33.1932 63.2376 33.0012 64.6976C32.8542 65.8096 32.9451 66.9576 33.0456 68.079L33.1295 69.0297C33.3402 71.5199 33.446 74.235 31.8139 76.2898C31.5603 76.605 31.0176 76.4794 30.8375 76.1641C30.7664 76.0385 30.6906 75.9176 30.6076 75.8015C29.8208 74.6615 28.6146 74.0121 27.2353 73.7609C27.0599 73.73 27.1286 73.4954 27.2756 73.4764C28.4416 73.339 29.5459 73.6305 30.4844 74.2325C30.0394 72.6935 26.594 73.4419 25.4613 73.741L25.4223 73.7514C24.0099 74.1306 22.6733 74.7468 21.4954 75.619C19.1255 77.3729 17.7557 80.108 17.8245 83.054C17.8932 85.9503 19.3886 88.6261 21.9576 90.0126C23.197 90.681 24.6071 91.0033 26.0101 90.9891C27.4746 90.9749 28.7781 90.3326 30.245 90.4227C31.0935 90.4748 31.7428 91.3849 31.2522 92.1789C30.9252 92.7098 30.4986 93.1269 30.0057 93.4469C31.2072 96.2176 32.7405 98.8602 34.5085 101.299C35.4872 102.652 36.5963 103.901 37.8168 105.041C38.7695 105.933 40.8337 106.964 40.7176 108.45C40.6773 108.985 40.4 109.312 39.9118 109.511C38.394 110.132 36.5484 107.995 35.5332 106.965L35.4517 106.883C34.1862 105.622 33.032 104.228 32.0272 102.75C30.245 100.123 29.1383 97.1632 28.6809 94.0536C26.247 94.786 23.024 94.0987 21.038 93.2004C14.7958 90.38 12.7553 81.9732 16.5495 76.3751C17.2841 75.2919 18.2037 74.3652 19.2511 73.6163C19.0213 73.4907 18.8056 73.3295 18.6136 73.1257C17.5518 71.9976 16.801 70.5255 16.0559 69.1687L15.9665 69.0064C15.305 67.8119 14.681 66.5986 14.0961 65.3667L13.8786 64.9038C12.5728 62.0952 11.4282 60.8675 10.4968 57.9144C9.60098 55.0655 8.89475 52.1621 8.43736 49.209L8.31582 48.4273C8.05129 46.7137 7.80113 44.8813 7.99419 43.1415C6.66469 43.5753 5.32807 43.8431 4.01279 43.1913C3.14541 42.7623 2.66669 41.5109 2.96293 40.6126C3.17859 39.9514 3.53881 39.4323 3.9962 39.0247C3.72366 38.8872 3.46772 38.7118 3.24258 38.5175L3.04588 38.3471V38.3471C2.2496 37.6547 2.19272 36.3393 2.67617 35.4719C2.72357 35.3889 2.77097 35.3036 2.816 35.2206C3.27576 34.3982 4.22608 33.8602 5.16455 33.8744C5.31623 33.8768 5.4679 33.8768 5.62194 33.8744C5.18351 33.7773 4.75456 33.6279 4.34694 33.3767C2.50791 32.2462 2.74016 29.1816 4.96548 28.6413C5.89922 28.4161 6.93012 28.5085 7.95865 28.7503C7.92073 28.7289 7.88281 28.7076 7.84489 28.6839C7.06757 28.2075 6.41585 27.2761 6.48932 26.3209C6.56989 25.2639 6.91116 24.5102 7.84489 23.9556C8.65539 23.4768 9.80242 23.4318 10.6082 23.9556C11.3073 24.413 11.9922 24.9178 12.651 25.4606C11.9898 24.6476 11.4163 23.7636 11.1841 22.825C10.8973 21.6566 11.376 20.3838 12.4282 19.7676C13.2672 19.277 14.1535 19.3315 14.9451 19.7107C14.9024 19.0969 15.0517 18.4712 15.4593 17.9165C16.2935 16.7791 17.8103 16.1248 19.1303 16.9543C19.3033 17.0633 19.5355 17.2506 19.7607 17.4805C19.3222 16.0845 19.718 14.6197 21.2134 13.9893C22.1258 13.603 23.3605 13.7973 24.1521 14.4633C23.6497 11.7448 27.6619 9.74681 29.2212 12.5554C29.5752 13.1916 29.9253 13.8616 30.2384 14.5469L30.3541 14.8046L30.3659 14.7999L30.2862 14.6114V14.6114L30.2048 14.423C29.7711 13.4157 29.2189 12.3681 29.0672 11.2755C28.8444 9.65912 29.5649 8.12566 31.3233 7.88865C32.231 7.76541 33.2406 8.17781 33.8496 8.89855C33.5202 6.39075 36.3214 4.56814 38.3382 6.44052C39.2933 7.32694 39.8028 8.62339 40.4095 9.76103C40.7531 10.4033 41.1038 11.0433 41.4475 11.6879C41.5352 11.5836 41.63 11.4794 41.7295 11.3774C41.22 9.8511 40.8242 8.28683 40.49 6.71308C40.1725 5.2294 40.9143 3.68884 42.4452 3.26957C43.8363 2.88537 45.5782 3.74359 45.8886 5.2249C46.1067 6.26751 46.365 7.29874 46.6494 8.32475C46.8437 8.27735 47.0357 8.24417 47.2253 8.22047C47.2411 8.0277 47.259 7.83388 47.279 7.64111L47.3536 6.95551C47.5193 5.38901 47.6865 3.60077 48.505 2.26915C49.9009 -0.00614973 53.4794 0.93715 53.5173 3.62721C53.5386 5.01846 52.9722 6.39786 52.7755 7.77489C52.6902 8.37453 52.6404 8.98127 52.612 9.58802C52.9936 7.57343 53.5173 5.58492 54.124 3.62721C54.1951 3.39257 54.2709 3.15793 54.3444 2.92329ZM23.4702 80.6105C26.6103 80.1246 29.4802 81.8761 31.3406 84.3292C31.6795 84.7771 31.4567 85.4099 31.151 85.7868C30.9306 86.0641 30.6343 86.0973 30.3002 86.1399C29.9163 86.1897 29.4304 85.8792 29.2622 85.545C28.0654 83.156 25.9301 81.6462 23.4702 80.7171C23.4252 80.7005 23.4109 80.6199 23.4702 80.6105ZM27.8218 37.8055L27.9169 37.7034C28.5523 37.0442 27.5482 36.0374 26.9114 36.698C26.241 37.3933 25.7954 38.2381 25.3669 39.0941C24.9586 39.9104 26.1848 40.6314 26.5948 39.812L26.7815 39.4396C27.0745 38.8606 27.387 38.2885 27.8218 37.8055V37.8055ZM19.0043 36.4526C19.9049 36.3009 19.5231 34.9303 18.6263 35.0815C17.4646 35.2773 16.3074 35.4998 15.1454 35.6958C14.2451 35.8475 14.6269 37.2182 15.5237 37.0672C16.6854 36.8712 17.8426 36.6486 19.0043 36.4526ZM72.6507 27.0952C71.7807 26.8048 71.4074 28.1778 72.2727 28.4665C73.4683 28.8654 74.6541 29.2742 75.7884 29.8281C76.6076 30.2282 77.3293 29.0021 76.506 28.6002C75.2611 27.9922 73.9631 27.5332 72.6507 27.0952ZM18.799 25.2523C17.9494 24.9125 17.5804 26.2874 18.421 26.6237L21.4924 27.8521V27.8521C22.342 28.192 22.7109 26.8173 21.8703 26.481L18.799 25.2523V25.2523ZM83.375 21.9133L83.2629 21.8425C82.4927 21.3434 81.7791 22.5739 82.5451 23.0705C82.9948 23.3618 83.5415 23.5594 83.9532 23.9065L84.0393 23.9832C84.7043 24.6113 85.7117 23.6078 85.0449 22.9776C84.5569 22.517 83.9393 22.2605 83.375 21.9133V21.9133Z" fill="black"/>
<path fill-rule="evenodd" clip-rule="evenodd" d="M73.5191 101.848C71.9226 101.198 70.4982 100.114 69.4568 98.7285C69.0947 98.2471 69.0008 97.7386 69.0768 97.2736C69.1622 96.7507 69.4722 96.2768 69.8949 95.9589C70.3189 95.6401 70.8494 95.4828 71.3622 95.563C71.8078 95.6326 72.2514 95.8761 72.6024 96.3811L72.6758 96.4821C73.2949 97.318 74.1017 98.0039 75.021 98.446C75.907 98.872 76.898 99.0709 77.9234 98.9553C79.8765 98.7351 81.2227 97.681 82.6535 96.2495C82.8308 96.0688 83.0083 95.8824 83.1866 95.693C83.2992 95.5213 83.4555 95.411 83.629 95.3531C83.8217 95.2888 84.0397 95.2924 84.2393 95.362C84.4318 95.429 84.6039 95.5561 84.7193 95.7252C84.829 95.8859 84.8912 96.0845 84.871 96.3129C84.7401 97.7964 83.9629 99.1203 82.859 100.16C81.633 101.314 80.0078 102.113 78.4777 102.393C76.7921 102.702 75.0744 102.481 73.5191 101.848V101.848ZM79.2729 78.9621C81.0663 80.05 83.7988 82.5868 81.8696 85.2838C79.5987 87.6618 76.329 84.9352 74.7178 83.7021C73.2239 82.7464 71.5453 85.2043 72.9314 86.3203C84.574 94.9226 89.2988 79.2466 80.18 77.683C79.176 77.5107 78.8031 78.6256 79.2729 78.9621ZM58.4093 68.9553C58.6075 66.5007 62.3533 65.9434 62.7259 68.3722C63.0596 70.548 62.6668 72.5467 61.6848 74.5056C60.7465 76.377 58.3881 75.5039 58.2097 73.7998C57.9706 71.5155 58.2861 70.4822 58.4093 68.9553ZM86.9232 67.8686C87.4455 67.186 88.1995 66.72 89.1029 66.9833C91.9255 67.8065 91.0936 71.8055 90.1023 73.7521C89.5637 74.8091 87.8226 75.0772 87.0358 74.1465C85.7534 72.6287 85.1392 69.5975 86.7696 68.1025C86.8138 68.0252 86.8629 67.9472 86.9232 67.8686ZM61.6451 58.2148L62.091 58.1369C63.4703 57.8989 65.1852 57.6701 66.161 58.7767C66.6785 59.3636 66.8566 60.4543 66.161 61.016C64.9374 62.0044 63.5847 61.6213 62.1184 61.705C60.9101 61.7742 59.7488 61.9738 58.5848 62.3058C56.0313 63.0342 53.9507 64.3638 51.7698 65.8238C51.4837 66.0153 51.1915 65.65 51.3281 65.3829C52.587 62.9221 55.0268 60.9006 57.4705 59.6684C58.7748 59.0107 60.2021 58.4651 61.6451 58.2148ZM84.3501 57.1125L84.6914 57.1822C88.4051 57.9569 93.23 59.5044 94.9886 63.1448C95.0556 63.6595 94.9848 63.7699 94.9272 63.8419L94.9081 63.8659C94.8606 63.9275 94.8228 64.0123 94.5992 64.0824C94.5372 64.0676 94.4745 64.052 94.4112 64.0354C93.6051 63.8246 92.9673 63.5342 92.3498 63.2328L91.6803 62.9036C90.9036 62.5236 90.12 62.1573 89.2896 61.887C87.5175 61.3101 85.6946 60.9037 83.8435 60.6867C83.4423 60.6397 83.056 60.5046 82.7512 60.273C82.4619 60.0532 82.2409 59.7488 82.1401 59.3442C82.0095 58.8207 82.0471 58.4243 82.3285 57.9519C82.5402 57.5972 82.8431 57.3514 83.1908 57.2102C83.5453 57.0662 83.9489 57.0323 84.3501 57.1125Z" fill="black"/>
<path fill-rule="evenodd" clip-rule="evenodd" d="M99.2877 75.4225C98.6161 77.2466 97.5939 79.1455 96.344 80.6806C91.2869 84.9544 86.373 82.5881 83.8779 76.7958C82.9299 72.7024 85.447 68.293 88.1143 65.2818C91.9664 61.4288 98.2529 63.4509 100.024 68.0314C100.132 68.6249 100.197 69.2169 100.228 69.8071C100.191 71.7247 99.9595 73.3636 99.2877 75.1855M50.678 71.7439C57.3401 63.8355 69.8036 63.4127 69.4856 75.5844C68.0544 90.991 43.9561 87.2095 50.678 71.7439ZM101.383 65.1466C101.149 64.752 100.89 64.3702 100.608 64.0049C100.503 63.9428 100.443 63.392 100.059 63.3513C94.9225 57.6964 85.8996 60.9048 82.6393 66.5395C82.0439 67.252 81.5583 68.086 81.2001 68.9672C77.9879 68.3792 74.2429 68.4934 71.2553 69.7043C68.2928 61.9844 59.324 61.2952 53.4136 64.5937C49.7375 66.398 47.3539 70.1767 43.7787 72.2524C35.3742 72.8561 26.3541 70.9768 18.1014 73.0808C11.5927 74.4312 17.0336 77.7202 18.1251 75.5253C25.906 73.231 35.1241 75.1698 43.2028 74.6528C44.0428 76.0709 45.6537 77.2313 47.2591 77.1817C48.993 92.5212 71.4082 89.9777 72.1815 76.3418C73.0585 74.9579 74.1493 73.6335 75.7106 72.7712C76.3083 72.6477 76.8857 72.4873 77.4134 72.2389C78.3153 72.1119 79.7051 72.4934 80.5349 73.2429C83.3774 90.264 99.7535 88.2816 102.68 73.3704C102.738 73.3111 102.901 73.0888 103.026 72.7321C104.028 71.4103 106.48 70.919 106.088 68.6875C105.739 66.4556 102.915 66.4822 101.383 65.1466Z" fill="black"/>
</svg>
