<svg xmlns="http://www.w3.org/2000/svg" xmlns:xlink="http://www.w3.org/1999/xlink" version="1.1" x="0px" y="0px" viewBox="0 0 100 125" enable-background="new 0 0 100 100" xml:space="preserve"><line fill="none" stroke="#000000" stroke-width="3" stroke-linecap="round" stroke-linejoin="round" stroke-miterlimit="10" x1="50.319" y1="71.513" x2="50.319" y2="92.303"/><path fill="none" stroke="#000000" stroke-width="3" stroke-linecap="round" stroke-linejoin="round" stroke-miterlimit="10" d="  M58.702,65.85c0,0-2.685,5.664-8.383,5.664s-9.49-5.664-9.49-5.664"/><path fill="none" stroke="#000000" stroke-width="3" stroke-linecap="round" stroke-linejoin="round" stroke-miterlimit="10" d="  M29.413,84.138c0-11.239,9.112-20.351,20.352-20.351s20.352,9.111,20.352,20.351l-18.802,8.508l-21.901-7.538"/><path fill="none" stroke="#000000" stroke-width="3" stroke-linecap="round" stroke-linejoin="round" stroke-miterlimit="10" d="  M61.243,41.953c0.781,1.647,1.219,3.49,1.219,5.435c0,7.012-5.685,12.697-12.697,12.697c-7.012,0-12.695-5.685-12.695-12.697  c0-1.945,0.437-3.789,1.22-5.437"/><line fill="none" stroke="#000000" stroke-width="3" stroke-linecap="round" stroke-linejoin="round" stroke-miterlimit="10" x1="46.646" y1="41.72" x2="46.646" y2="33.056"/><line fill="none" stroke="#000000" stroke-width="3" stroke-linecap="round" stroke-linejoin="round" stroke-miterlimit="10" x1="51.379" y1="41.72" x2="51.379" y2="35.422"/><line fill="none" stroke="#000000" stroke-width="3" stroke-linecap="round" stroke-linejoin="round" stroke-miterlimit="10" x1="56.898" y1="41.72" x2="56.898" y2="35.422"/><path fill="none" stroke="#000000" stroke-width="3" stroke-linecap="round" stroke-linejoin="round" stroke-miterlimit="10" d="  M37.882,42.409V26.125l-2.093-1.384c-2.507-1.566-4.176-4.35-4.176-7.525c0-4.896,3.971-8.865,8.864-8.865  c4.896,0,8.172,3.969,8.172,8.865h0.361c0-4.896,3.972-8.865,8.865-8.865c4.897,0,8.866,3.969,8.866,8.865  c0,2.634-1.149,4.999-2.973,6.623l-2.477,2.407v16.164H37.882z"/><text x="0" y="115" fill="#000000" font-size="5px" font-weight="bold" font-family="'Helvetica Neue', Helvetica, Arial-Unicode, Arial, Sans-serif">Created by IconTrack</text><text x="0" y="120" fill="#000000" font-size="5px" font-weight="bold" font-family="'Helvetica Neue', Helvetica, Arial-Unicode, Arial, Sans-serif">from the Noun Project</text></svg>